<svg width="21" height="21" viewBox="0 0 21 21" fill="none" xmlns="http://www.w3.org/2000/svg">
<path d="M18.3496 8.15723C18.3745 8.78161 18.375 9.51255 18.375 10.375V10.625C18.375 13.4534 18.3748 14.8674 17.4961 15.7461C16.6174 16.6248 15.2034 16.625 12.375 16.625H8.625C5.79657 16.625 4.38259 16.6248 3.50391 15.7461C2.62523 14.8674 2.625 13.4534 2.625 10.625V10.375C2.625 9.51257 2.6245 8.7816 2.64941 8.15723L9.52832 11.9795C10.1324 12.3151 10.8676 12.3151 11.4717 11.9795L18.3496 8.15723ZM12.375 4.375C15.2034 4.375 16.6174 4.37523 17.4961 5.25391C17.7252 5.48302 17.8933 5.74889 18.0186 6.06641C17.9749 6.08314 17.9317 6.10262 17.8896 6.12598L10.5 10.2314L3.11035 6.12598C3.06803 6.10247 3.02441 6.0832 2.98047 6.06641C3.10569 5.74875 3.27471 5.4831 3.50391 5.25391C4.38259 4.37523 5.79657 4.375 8.625 4.375H12.375Z" fill="#EF4324"/>
</svg>
