<svg width="35" height="35" viewBox="0 0 35 35" fill="none" xmlns="http://www.w3.org/2000/svg">
<circle cx="17.5" cy="17.5" r="17.5" fill="#EF4324" fill-opacity="0.82"/>
<path d="M12.4478 13.9694C12.7622 11.1403 15.1535 9 18 9C20.8465 9 23.2378 11.1403 23.5522 13.9694L23.804 16.2356C23.8072 16.2645 23.8088 16.279 23.8104 16.2933C23.9394 17.4169 24.3051 18.5005 24.8836 19.4725C24.8909 19.4849 24.8984 19.4973 24.9133 19.5222L25.4914 20.4856C26.0159 21.3599 26.2782 21.797 26.2216 22.1559C26.1839 22.3946 26.061 22.6117 25.8757 22.7668C25.5971 23 25.0873 23 24.0678 23H11.9322C10.9127 23 10.4029 23 10.1243 22.7668C9.93897 22.6117 9.81609 22.3946 9.77841 22.1559C9.72179 21.797 9.98407 21.3599 10.5086 20.4856L11.0867 19.5222C11.1016 19.4973 11.1091 19.4849 11.1164 19.4725C11.6949 18.5005 12.0606 17.4169 12.1896 16.2933C12.1912 16.279 12.1928 16.2645 12.196 16.2356L12.4478 13.9694Z" stroke="white" stroke-width="2"/>
<path d="M14 23C14 23.5253 14.1035 24.0454 14.3045 24.5307C14.5055 25.016 14.8001 25.457 15.1716 25.8284C15.543 26.1999 15.984 26.4945 16.4693 26.6955C16.9546 26.8965 17.4747 27 18 27C18.5253 27 19.0454 26.8965 19.5307 26.6955C20.016 26.4945 20.457 26.1999 20.8284 25.8284C21.1999 25.457 21.4945 25.016 21.6955 24.5307C21.8965 24.0454 22 23.5253 22 23" stroke="white" stroke-width="2" stroke-linecap="round"/>
</svg>
