<svg xmlns="http://www.w3.org/2000/svg" viewBox="0 0 1024 1024" width="1024" height="1024">
  <g transform="translate(512, 471)">
    <path d="M0,-427 C-427,-427 -427,-171 -427,55 C-427,300 -215,478 0,539 C215,478 427,300 427,55 C427,-171 427,-427 0,-427 Z" fill="white" stroke="#1A1A1A" stroke-width="10"/>
    <ellipse cx="-195" cy="-154" rx="58" ry="65" fill="#1A1A1A"/>
    <ellipse cx="-68" cy="-235" rx="58" ry="65" fill="#1A1A1A"/>
    <ellipse cx="68"  cy="-235" rx="58" ry="65" fill="#1A1A1A"/>
    <ellipse cx="195" cy="-154" rx="58" ry="65" fill="#1A1A1A"/>
    <path d="M-290,120 C-290,-34 -181,-119 0,-119 C181,-119 290,-34 290,120 C290,239 181,314 0,314 C-181,314 -290,239 -290,120 Z" fill="#1A1A1A"/>
    <ellipse cx="0" cy="120" rx="205" ry="102" fill="white"/>
    <circle cx="0" cy="120" r="99" fill="#1A1A1A"/>
    <circle cx="0" cy="120" r="55" fill="white"/>
    <circle cx="24" cy="92" r="26" fill="#1A1A1A"/>
  </g>
</svg>
