<svg xmlns="http://www.w3.org/2000/svg" viewBox="0 0 600 120" width="600" height="120">
  <g transform="translate(50, 60)">
    <path d="M0,-38 C-30,-38 -30,-17 -30,3 C-30,21 -16,35 0,42 C16,35 30,21 30,3 C30,-17 30,-38 0,-38 Z" fill="#EF4324"/>
    <ellipse cx="-14" cy="-10" rx="4.8" ry="5.8" fill="white"/>
    <ellipse cx="-5" cy="-16" rx="4.8" ry="5.8" fill="#1A73E8"/>
    <ellipse cx="5"  cy="-16" rx="4.8" ry="5.8" fill="#008000"/>
    <ellipse cx="14"  cy="-10" rx="4.8" ry="5.8" fill="white"/>
    <path d="M-18,8 C-18,-1 -11,-7 0,-7 C11,-7 18,-1 18,8 C18,15 11,19 0,19 C-11,19 -18,15 -18,8 Z" fill="#1A1A1A"/>
    <ellipse cx="0" cy="8" rx="11" ry="6" fill="#0D0D0D"/>
    <circle cx="0" cy="8" r="4.5" fill="#EF4324"/>
    <circle cx="0" cy="8" r="2.5" fill="#0D0D0D"/>
    <circle cx="1.5" cy="6" r="1.3" fill="white"/>
  </g>
  <line x1="96" y1="20" x2="96" y2="100" stroke="#E0E0E0" stroke-width="1"/>
  <text x="112" y="52" font-family="DM Sans, sans-serif" font-size="38" font-weight="700" fill="#EF4324" letter-spacing="0.5">Hope</text>
  <text x="248" y="52" font-family="DM Sans, sans-serif" font-size="38" font-weight="700" fill="#1A1A1A" letter-spacing="0.5">TSIT</text>
  <text x="112" y="76" font-family="DM Sans, sans-serif" font-size="13" fill="#AAAAAA" letter-spacing="2">PET-SITTING · PAWMAP</text>
</svg>
