<svg xmlns="http://www.w3.org/2000/svg" viewBox="0 0 1024 1024" width="1024" height="1024">
  <rect width="1024" height="1024" rx="229" fill="#111111"/>
  <g transform="translate(512, 471)">
    <path d="M0,-427 C-427,-427 -427,-171 -427,55 C-427,300 -215,478 0,539 C215,478 427,300 427,55 C427,-171 427,-427 0,-427 Z" fill="#2A2A2A"/>
    <ellipse cx="-195" cy="-154" rx="58" ry="65" fill="#FF5533"/>
    <ellipse cx="-68" cy="-235" rx="58" ry="65" fill="#4A90E8"/>
    <ellipse cx="68"  cy="-235" rx="58" ry="65" fill="#22AA22"/>
    <ellipse cx="195" cy="-154" rx="58" ry="65" fill="#FF5533"/>
    <path d="M-290,120 C-290,-34 -181,-119 0,-119 C181,-119 290,-34 290,120 C290,239 181,314 0,314 C-181,314 -290,239 -290,120 Z" fill="#111111"/>
    <ellipse cx="0" cy="120" rx="205" ry="102" fill="#0D0D0D"/>
    <circle cx="0" cy="120" r="99" fill="#FF5533"/>
    <circle cx="0" cy="120" r="55" fill="#0D0D0D"/>
    <circle cx="24" cy="92" r="26" fill="white"/>
    <circle cx="-20" cy="137" r="14" fill="white" opacity="0.5"/>
    <path d="M-205,120 C-116,55 116,55 205,120" fill="none" stroke="#0D0D0D" stroke-width="8.9" stroke-linecap="round"/>
    <path d="M-205,120 C-116,184 116,184 205,120" fill="none" stroke="#0D0D0D" stroke-width="8.9" stroke-linecap="round"/>
  </g>
</svg>
