<svg xmlns="http://www.w3.org/2000/svg" viewBox="0 0 108 108" width="108" height="108">
  <g transform="translate(54, 54) scale(0.075)">
    <path d="M0,-320 C-257,-320 -257,-137 -257,23 C-257,177 -137,291 0,337 C137,291 257,177 257,23 C257,-137 257,-320 0,-320 Z" fill="white"/>
    <ellipse cx="-120" cy="-80" rx="40" ry="48" fill="#EF4324"/>
    <ellipse cx="-43" cy="-137" rx="40" ry="48" fill="#1A73E8"/>
    <ellipse cx="43"  cy="-137" rx="40" ry="48" fill="#008000"/>
    <ellipse cx="120" cy="-80" rx="40" ry="48" fill="#EF4324"/>
    <path d="M-149,63 C-149,-11 -91,-57 0,-57 C91,-57 149,-11 149,63 C149,120 91,160 0,160 C-91,160 -149,120 -149,63 Z" fill="#1A1A1A"/>
    <ellipse cx="0" cy="63" rx="91" ry="51" fill="#0D0D0D"/>
    <circle cx="0" cy="63" r="37" fill="#EF4324"/>
    <circle cx="0" cy="63" r="20" fill="#0D0D0D"/>
    <circle cx="13" cy="49" r="10" fill="white"/>
    <circle cx="-9" cy="74" r="5" fill="white" opacity="0.5"/>
    <path d="M-91,63 C-54,23 54,23 91,63" fill="none" stroke="#0D0D0D" stroke-width="5" stroke-linecap="round"/>
    <path d="M-91,63 C-54,103 54,103 91,63" fill="none" stroke="#0D0D0D" stroke-width="5" stroke-linecap="round"/>
  </g>
</svg>
