<svg xmlns="http://www.w3.org/2000/svg" viewBox="0 0 96 96" width="96" height="96">
  <g transform="translate(48, 44.2) scale(0.1)">
    <path d="M0,-393 C-393,-393 -393,-157 -393,55 C-393,273 -198,444 0,505 C198,444 393,273 393,55 C393,-157 393,-393 0,-393 Z" fill="white"/>
    <ellipse cx="-177" cy="-143" rx="55" ry="61" fill="white"/>
    <ellipse cx="-61" cy="-218" rx="55" ry="61" fill="white"/>
    <ellipse cx="61"  cy="-218" rx="55" ry="61" fill="white"/>
    <ellipse cx="177" cy="-143" rx="55" ry="61" fill="white"/>
    <path d="M-266,102 C-266,-44 -164,-119 0,-119 C164,-119 266,-44 266,102 C266,215 164,290 0,290 C-164,290 -266,215 -266,102 Z" fill="white"/>
    <ellipse cx="0" cy="102" rx="188" ry="95" fill="#EF4324"/>
    <circle cx="0" cy="102" r="75" fill="white"/>
  </g>
</svg>
