<svg xmlns="http://www.w3.org/2000/svg" viewBox="0 0 96 96" width="96" height="96">
  <g transform="translate(48, 44.2) scale(0.095)">
    <path d="M0,-427 C-427,-427 -427,-171 -427,55 C-427,300 -215,478 0,539 C215,478 427,300 427,55 C427,-171 427,-427 0,-427 Z" fill="white"/>
    <ellipse cx="-195" cy="-154" rx="58" ry="65" fill="white"/>
    <ellipse cx="-68" cy="-235" rx="58" ry="65" fill="white"/>
    <ellipse cx="68"  cy="-235" rx="58" ry="65" fill="white"/>
    <ellipse cx="195" cy="-154" rx="58" ry="65" fill="white"/>
    <path d="M-290,120 C-290,-34 -181,-119 0,-119 C181,-119 290,-34 290,120 C290,239 181,314 0,314 C-181,314 -290,239 -290,120 Z" fill="white"/>
    <ellipse cx="0" cy="120" rx="205" ry="102" fill="#EF4324"/>
    <circle cx="0" cy="120" r="80" fill="white"/>
  </g>
</svg>
