<svg xmlns="http://www.w3.org/2000/svg" viewBox="0 0 96 96" width="96" height="96">
  <g transform="translate(48, 48) scale(0.125)">
    <path d="M0,-280 C-224,-280 -224,-120 -224,20 C-224,155 -120,255 0,295 C120,255 224,155 224,20 C224,-120 224,-280 0,-280 Z" fill="white"/>
    <ellipse cx="-105" cy="-70" rx="35" ry="42" fill="white"/>
    <ellipse cx="-38" cy="-120" rx="35" ry="42" fill="white"/>
    <ellipse cx="38"  cy="-120" rx="35" ry="42" fill="white"/>
    <ellipse cx="105" cy="-70" rx="35" ry="42" fill="white"/>
    <path d="M-130,55 C-130,-10 -80,-50 0,-50 C80,-50 130,-10 130,55 C130,105 80,140 0,140 C-80,140 -130,105 -130,55 Z" fill="white"/>
    <ellipse cx="0" cy="55" rx="80" ry="45" fill="#EF4324"/>
    <circle cx="0" cy="55" r="30" fill="white"/>
  </g>
</svg>
